# xmcd
#
# Track frame offsets:
#	150
#	19065
#	40325
#	63107
#	83125
#	103055
#	123547
#	142760
#	163320
#	185790
#	203860
#	224260
#	244285
#	266905
#	285130
#	300750
#	319992
#
# Disc length: 4523
#
# Revision: 1
# Processed by: cddbd v1.5.1PL0 Copyright (c) Steve Scherf et al.
# Submitted via: dBpowerAMP V4.0
# Normalized: r0:DSETVAR1,TDELIM( - )
#
DISCID=f511a911
DTITLE=Various Artist - Clubtracks Vol  6 1996
DYEAR=1996
DGENRE=R&B
TTITLE0=Quindon - It's You That's On My Mind
TTITLE1=Montell Jordan and Slick Rick - I Like
TTITLE2=Men Of Vizion - Do thangz
TTITLE3=Keith Sweat - Nobody
TTITLE4=Donnel Jones - Wish You Were Here
TTITLE5=Toni Braxton - You're Making Me High
TTITLE6=Gina Thompson - The Things That You Do
TTITLE7=Mona Lisa - Keep Falling
TTITLE8=Horace Brown - Why Why Why
TTITLE9=Shades - Tell Me (I'll Be Around)
TTITLE10=Monica - Missing You
TTITLE11=A+ - All I See
TTITLE12=Sa Deuce and H-Town - Body Knockin'
TTITLE13=R Kelly - I Can't Sleep Baby
TTITLE14=Melieck Britt - I'm The Only Player
TTITLE15=Mariah Carey - Slippin Away
TTITLE16=Color Me Badd - The Earth The Sun, The Rain
EXTD=
EXTT0=
EXTT1=
EXTT2=
EXTT3=
EXTT4=
EXTT5=
EXTT6=
EXTT7=
EXTT8=
EXTT9=
EXTT10=
EXTT11=
EXTT12=
EXTT13=
EXTT14=
EXTT15=
EXTT16=
PLAYORDER=
